<svg class="fill-current" fill="#fff" xmlns="http://www.w3.org/2000/svg" width="16" height="16" viewBox="0 0 16 16">
  <path fill="#fff" d="M8 .125c-2.139 0-2.407.01-3.247.047-.837.039-1.41.172-1.911.367-.519.201-.957.47-1.395.908a3.854 3.854 0 00-.908 1.395c-.195.5-.328 1.074-.367 1.912C.134 5.593.125 5.861.125 8c0 2.138.009 2.406.047 3.246.039.839.172 1.412.367 1.912.201.519.47.958.908 1.396s.876.706 1.395.908c.501.196 1.074.328 1.912.366.839.037 1.107.047 3.246.047s2.407-.01 3.246-.047c.839-.038 1.412-.17 1.912-.366a3.864 3.864 0 001.395-.908c.438-.438.707-.877.909-1.396.195-.5.328-1.073.366-1.912.038-.84.047-1.107.047-3.246 0-2.139-.009-2.407-.047-3.247-.038-.838-.171-1.412-.366-1.912a3.87 3.87 0 00-.909-1.395 3.825 3.825 0 00-1.395-.908c-.5-.195-1.073-.328-1.912-.367C10.407.135 10.139.125 8 .125zm0 1.419c2.103 0 2.352.008 3.182.046.769.035 1.185.164 1.463.271.368.143.629.313.905.588.275.276.447.539.589.906.107.278.236.694.271 1.462.038.831.046 1.08.046 3.183s-.008 2.353-.046 3.182c-.035.768-.164 1.185-.271 1.462-.142.368-.313.63-.589.905a2.422 2.422 0 01-.905.589c-.278.108-.694.237-1.463.271-.83.037-1.079.045-3.182.045-2.103 0-2.352-.008-3.183-.045-.768-.034-1.184-.163-1.462-.271a2.414 2.414 0 01-.905-.589 2.439 2.439 0 01-.589-.905c-.108-.277-.237-.694-.272-1.462-.037-.828-.046-1.078-.046-3.182s.009-2.352.046-3.183c.036-.767.164-1.184.272-1.462.143-.367.314-.629.589-.905.275-.275.538-.446.905-.588.278-.109.694-.237 1.462-.272.831-.038 1.08-.046 3.183-.046"></path><path d="M8 10.625a2.626 2.626 0 11.002-5.252A2.626 2.626 0 018 10.625zm0-6.669a4.042 4.042 0 100 8.086 4.043 4.043 0 100-8.086zM13.148 3.797a.945.945 0 11-1.89 0 .945.945 0 011.89 0z"></path>
</svg>