<svg version="1.1" id="Layer_1" xmlns="http://www.w3.org/2000/svg" xmlns:xlink="http://www.w3.org/1999/xlink" x="0px" y="0px" width="16px" height="16px" viewBox="0 0 16 16" enable-background="new 0 0 16 16" xml:space="preserve">
<path class="fill-current" fill="#fff" d="M15.998,13.001c0,1.656-1.344,2.999-3.001,2.999H3c-1.656,0-3-1.343-3-2.999V3.002c0-1.656,1.344-2.999,3-2.999h9.998
  c1.657,0,3.001,1.343,3.001,2.999V13.001z M3.687,2.69c-0.822,0-1.364,0.542-1.364,1.25c0,0.687,0.521,1.249,1.333,1.249h0.011
  c0.843,0,1.364-0.562,1.364-1.249C5.02,3.232,4.509,2.69,3.687,2.69z M4.874,13.397V6.168H2.468v7.229H4.874z M13.529,13.397V9.252
  c0-2.22-1.188-3.249-2.77-3.249c-1.292,0-1.865,0.718-2.177,1.218h0.02V6.168H6.197c0,0,0.031,0.677,0,7.229h2.405V9.355
  c0-0.208,0.011-0.427,0.073-0.583c0.177-0.427,0.573-0.875,1.241-0.875c0.864,0,1.205,0.656,1.205,1.635v3.865H13.529z"></path>
</svg>