<svg width="374" height="302" viewBox="0 0 374 302" fill="none" xmlns="http://www.w3.org/2000/svg">
<path d="M245.713 168.54C237.835 173.264 223.8 179.184 209.457 173.1L200.186 169.168L218.765 148.341C203.939 131.994 195.737 110.709 195.76 88.6403C195.782 66.5716 204.028 45.3034 218.887 28.9869C233.747 12.6704 254.153 2.47671 276.123 0.395604C298.094 -1.6855 320.051 4.49531 337.71 17.7316C355.368 30.9679 367.46 50.3097 371.626 71.9816C375.792 93.6535 371.733 116.1 360.24 134.94C348.747 153.78 330.646 167.661 309.47 173.873C288.294 180.086 265.562 178.185 245.713 168.54V168.54ZM210.115 88.5905C210.074 98.7637 212.139 108.835 216.179 118.172C220.22 127.508 226.148 135.908 233.592 142.842L238.717 147.658L227.026 160.763C233.115 159.528 238.419 156.233 241.109 154.32L244.799 151.694L248.768 153.875C259.739 159.882 272.045 163.029 284.553 163.028C325.598 163.028 358.99 129.636 358.99 88.5906C358.99 47.5456 325.598 14.153 284.553 14.153C243.508 14.153 210.115 47.5456 210.115 88.5906V88.5905Z" fill="#3F3D56"/>
<path d="M202.898 88.5905C202.898 43.494 239.456 6.936 284.552 6.936C329.649 6.936 366.207 43.494 366.207 88.5905C366.207 133.687 329.649 170.245 284.552 170.245C270.827 170.265 257.321 166.809 245.292 160.2C239.647 164.216 225.878 172.227 212.275 166.457L228.649 148.101C220.509 140.475 214.023 131.257 209.594 121.02C205.164 110.783 202.885 99.7449 202.898 88.5905V88.5905Z" fill="#02D35F"/>
<path opacity="0.1" d="M352.296 88.7675C352.296 46.1035 319.574 11.0881 277.858 7.43405C280.237 7.22571 282.643 7.11298 285.075 7.11298C330.172 7.11298 366.73 43.6709 366.73 88.7675C366.73 133.864 330.172 170.422 285.075 170.422C282.646 170.422 280.245 170.308 277.87 170.1C319.58 166.44 352.296 131.428 352.296 88.7675Z" fill="black"/>
<path d="M96.3879 281.975C75.985 281.985 56.1988 274.981 40.3451 262.139C24.4915 249.296 13.5338 231.394 9.3086 211.433C5.08338 191.473 7.84734 170.666 17.1373 152.501C26.4272 134.336 41.6785 119.916 60.3353 111.657C78.9921 103.399 99.9206 101.804 119.613 107.14C139.306 112.476 156.566 124.418 168.502 140.966C180.437 157.514 186.322 177.661 185.17 198.031C184.018 218.402 175.9 237.757 162.176 252.854L180.755 273.681L171.483 277.614C157.141 283.697 143.106 277.778 135.228 273.053C123.121 278.922 109.842 281.973 96.3879 281.975V281.975ZM96.3879 118.666C55.343 118.666 21.9504 152.059 21.9504 193.104C21.9504 234.149 55.343 267.541 96.3879 267.541C108.895 267.543 121.202 264.395 132.173 258.388L136.142 256.207L139.832 258.833C142.521 260.747 147.825 264.041 153.915 265.276L142.224 252.171L147.349 247.355C154.793 240.421 160.721 232.022 164.762 222.685C168.802 213.349 170.866 203.277 170.825 193.104C170.825 152.059 137.433 118.666 96.3879 118.666V118.666Z" fill="#3F3D56"/>
<path d="M178.042 193.104C178.042 148.007 141.484 111.449 96.3879 111.449C51.2914 111.449 14.7334 148.007 14.7334 193.104C14.7334 238.2 51.2914 274.758 96.3879 274.758C110.113 274.778 123.619 271.323 135.648 264.714C141.293 268.73 155.062 276.74 168.665 270.97L152.291 252.615C160.431 244.988 166.917 235.77 171.346 225.533C175.776 215.296 178.055 204.258 178.042 193.104Z" fill="#02D35F"/>
<path opacity="0.1" d="M29.1673 192.692C29.1673 150.028 61.8895 115.012 103.605 111.358C101.226 111.15 98.8204 111.037 96.3879 111.037C51.2913 111.037 14.7334 147.595 14.7334 192.692C14.7334 237.788 51.2913 274.346 96.3879 274.346C98.8168 274.346 101.218 274.232 103.593 274.024C61.8835 270.364 29.1673 235.352 29.1673 192.692Z" fill="black"/>
<path d="M303.722 62.649C298.38 53.6217 287.81 53.201 287.81 53.201C287.81 53.201 277.51 51.8839 270.903 65.6325C264.745 78.4473 256.245 90.8202 269.535 93.82L271.935 86.3488L273.422 94.3763C275.314 94.5124 277.212 94.5448 279.108 94.4734C293.34 94.0139 306.894 94.6079 306.457 89.5009C305.877 82.7118 308.863 71.3349 303.722 62.649Z" fill="#2F2E41"/>
<path d="M268.775 141.705C268.618 142.698 268.39 143.678 268.093 144.638C267.759 145.578 267.243 146.448 266.937 147.398C265.963 150.425 267.313 153.801 269.471 156.137C271.342 158.156 273.757 159.59 276.424 160.266C278.388 160.687 280.391 160.897 282.4 160.894C287.954 161.083 293.65 161.251 298.913 159.466C300.576 158.888 302.181 158.159 303.71 157.287C304.193 157.057 304.618 156.722 304.955 156.307C305.308 155.698 305.465 154.996 305.405 154.296C305.393 151.941 304.915 149.599 305.029 147.247C305.091 145.945 305.335 144.643 305.215 143.344C305.049 141.87 304.431 140.482 303.446 139.372C302.461 138.262 301.157 137.483 299.713 137.142C298.22 136.822 296.671 136.997 295.152 137.143C291.206 137.522 287.244 137.699 283.281 137.673C279.231 137.648 275.207 137.029 271.177 136.965C269.986 136.946 270.01 137.313 269.631 138.466C269.281 139.528 268.995 140.609 268.775 141.705V141.705Z" fill="#2F2E41"/>
<path d="M280.267 83.5683C280.073 84.5873 279.862 85.6435 279.25 86.4809C278.546 87.4443 277.397 87.9948 276.639 88.9168C275.498 90.3046 275.433 92.2575 275.428 94.054C275.424 95.709 275.457 97.4742 276.38 98.848C277.037 99.7014 277.852 100.42 278.781 100.965C282.242 103.297 285.982 105.672 290.155 105.749C291.884 105.78 293.738 105.334 294.876 104.032C295.367 103.42 295.753 102.731 296.019 101.992C297.086 99.3622 297.733 96.5806 297.936 93.7494C298.089 92.4185 297.965 91.0701 297.571 89.7897C297.064 88.3762 296.039 87.2133 295.361 85.8732C294.561 84.2797 294.268 82.479 294.522 80.7138C294.556 80.5895 294.545 80.4574 294.493 80.3399C294.437 80.277 294.367 80.2279 294.29 80.1963C294.212 80.1648 294.128 80.1517 294.044 80.158L285.77 79.5624C284.999 79.5241 284.232 79.4363 283.472 79.2995C283.026 79.2088 281.848 78.5753 281.423 78.7438C280.635 79.0556 280.429 82.7233 280.267 83.5683Z" fill="#A0616A"/>
<path opacity="0.1" d="M280.267 83.8267C280.073 84.8456 279.862 85.9018 279.25 86.7392C278.546 87.7026 277.397 88.2531 276.639 89.1751C275.498 90.5629 275.433 92.5158 275.428 94.3123C275.424 95.9673 275.457 97.7325 276.38 99.1063C277.037 99.9597 277.852 100.678 278.781 101.223C282.242 103.556 285.982 105.93 290.155 106.007C291.884 106.039 293.738 105.592 294.876 104.29C295.367 103.678 295.753 102.989 296.019 102.251C297.086 99.6206 297.733 96.839 297.936 94.0078C298.089 92.6768 297.965 91.3285 297.571 90.048C297.064 88.6346 296.039 87.4716 295.361 86.1316C294.56 84.5381 294.268 82.7373 294.522 80.9722C294.556 80.8479 294.545 80.7157 294.493 80.5983C294.437 80.5354 294.367 80.4862 294.29 80.4547C294.212 80.4231 294.128 80.41 294.044 80.4164L285.77 79.8207C284.999 79.7824 284.232 79.6946 283.472 79.5579C283.026 79.4672 281.848 78.8337 281.423 79.0022C280.635 79.314 280.429 82.9817 280.267 83.8267Z" fill="black"/>
<path d="M288.181 84.6778C294.886 84.6778 300.321 79.2428 300.321 72.5384C300.321 65.834 294.886 60.399 288.181 60.399C281.477 60.399 276.042 65.834 276.042 72.5384C276.042 79.2428 281.477 84.6778 288.181 84.6778Z" fill="#A0616A"/>
<path d="M281.97 99.7277C282.57 100.422 283.293 101 284.103 101.432C284.947 101.78 285.853 101.953 286.766 101.939C288.955 102 291.327 101.599 292.849 100.026C294.811 97.9982 294.747 94.7273 296.285 92.3614C296.409 92.1469 296.578 91.962 296.78 91.8194C297.038 91.6789 297.33 91.6119 297.623 91.6256C299.566 91.6074 301.258 92.8673 302.785 94.068C303.504 94.5626 304.121 95.191 304.602 95.9188C304.904 96.5079 305.111 97.1412 305.215 97.7951C305.973 101.495 306.218 105.277 306.462 109.045C306.596 111.127 306.731 113.21 306.721 115.296C306.688 122.168 305.091 128.925 303.502 135.611C303.298 136.472 303.018 137.435 302.234 137.848C301.885 138.005 301.51 138.096 301.128 138.118C296.578 138.652 292.02 139.187 287.44 139.257C285.652 139.285 283.866 139.242 282.08 139.128C281.772 139.124 281.468 139.07 281.177 138.97C280.783 138.781 280.444 138.493 280.193 138.134C277.715 135.013 277.569 130.697 277.585 126.711C277.624 116.967 277.972 107.231 278.629 97.5031C278.684 96.7001 278.696 95.7249 278.117 95.0933C279.243 96.7629 280.534 98.3154 281.97 99.7277V99.7277Z" fill="white"/>
<path d="M279.399 85.711C278.989 86.4531 275.966 88.2961 275.383 88.9112C272.122 92.348 266.171 92.219 263.189 95.9001C262.14 97.1952 261.595 98.8225 261.194 100.44C260.627 102.729 260.324 105.224 261.274 107.381C262.188 109.457 264.112 110.893 265.418 112.747C266.852 114.783 267.497 117.255 268.115 119.668C268.572 121.45 269.032 123.275 268.854 125.105C268.652 127.186 267.645 129.092 267.05 131.096C266.456 133.101 266.353 135.488 267.728 137.064C268.738 138.221 270.322 138.68 271.836 138.938C273.776 139.229 275.731 139.4 277.692 139.448C279.423 139.524 281.331 139.539 282.662 138.429C283.712 137.554 284.168 136.133 284.227 134.767C284.286 133.401 284.002 132.047 283.824 130.692C283.639 129.287 283.568 127.869 283.509 126.453C283.243 120.1 283.207 113.742 283.4 107.381C283.498 106.058 283.433 104.729 283.207 103.423C282.836 101.721 281.916 100.2 281.149 98.6366C279.615 95.6917 278.92 92.3818 279.141 89.0687C279.373 85.6639 280.858 83.0699 279.399 85.711Z" fill="white"/>
<path d="M296.447 85.9692C297.071 86.611 299.193 86.8226 299.988 87.236C300.735 87.5812 301.515 87.8512 302.315 88.0419C305.213 88.8779 307.969 90.1429 310.493 91.795C311.017 92.1017 311.48 92.5021 311.86 92.9762C312.26 93.6269 312.518 94.3549 312.616 95.1123C313.005 97.0391 313.396 98.9892 313.309 100.953C313.216 103.037 312.588 105.056 311.965 107.048L309.638 114.489C307.901 120.043 306.152 125.652 305.663 131.451C305.393 134.665 305.513 137.9 306.021 141.085C306.069 141.24 306.084 141.403 306.063 141.564C306.043 141.725 305.989 141.879 305.904 142.018C305.751 142.169 305.549 142.262 305.334 142.28C304.211 142.456 303.124 141.883 302.106 141.376C298.995 139.828 295.675 138.742 292.251 138.151C293.589 136.218 294.621 134.09 295.312 131.842C295.704 130.414 296.013 128.965 296.237 127.502L297.319 121.24C297.76 118.951 298.07 116.639 298.248 114.315C298.33 113.443 298.279 112.563 298.097 111.706C297.848 110.891 297.517 110.103 297.109 109.354C295.324 105.642 294.487 101.406 295.189 97.3484C295.496 95.5725 296.093 93.7942 295.844 92.0091C295.605 90.2929 295.854 88.9591 295.413 87.2606C293.606 80.2869 295.272 84.7617 296.447 85.9692Z" fill="white"/>
<path d="M263.159 101.769C262.345 103.457 260.985 104.895 260.523 106.711C260.342 107.559 260.265 108.426 260.293 109.294C260.212 110.6 260.342 111.912 260.676 113.178C260.934 113.978 261.354 114.717 261.657 115.502C262.079 116.598 262.267 117.771 262.209 118.945C262.128 120.571 261.575 122.149 261.532 123.777C261.464 126.336 262.648 128.743 263.803 131.027C264.094 130.307 264.538 129.66 265.106 129.129C265.673 128.599 266.349 128.199 267.087 127.958C267.825 127.716 268.607 127.639 269.378 127.731C270.149 127.823 270.89 128.082 271.551 128.491C271.815 128.166 271.941 127.75 271.9 127.333C271.985 124.364 272.067 121.394 272.147 118.425C272.272 113.832 272.391 109.178 271.334 104.707C270.857 102.688 270.115 100.677 268.755 99.1117C268.038 98.2873 265.606 96.1156 264.43 97.0392C263.901 97.4546 264.025 98.5852 263.941 99.1577C263.815 100.063 263.551 100.943 263.159 101.769V101.769Z" fill="white"/>
<path d="M313.547 96.9039C313.874 98.1212 314.014 99.3812 313.962 100.641C313.978 103.207 313.944 105.774 313.86 108.34C313.873 109.656 313.705 110.968 313.36 112.238C313.097 113.065 312.692 113.839 312.421 114.663C311.608 117.13 312.052 119.806 312.122 122.403C312.171 123.244 312.099 124.087 311.909 124.907C311.48 126.517 310.326 127.818 309.522 129.277C308.757 130.662 308.296 132.215 307.383 133.508C306.47 134.8 304.89 135.824 303.358 135.427C302.197 135.127 301.373 134.099 300.802 133.045C299.557 130.726 299.132 128.055 299.594 125.465C300.167 122.313 302.018 119.516 302.686 116.383C303.603 112.081 302.209 107.641 302.251 103.242C302.232 102.552 302.325 101.864 302.527 101.204C302.878 100.2 303.63 99.3971 304.325 98.5913C305.193 97.5841 306 96.5255 306.74 95.421C307.238 94.6791 307.914 92.7708 308.796 92.6121C310.765 92.2579 313.058 95.3826 313.547 96.9039Z" fill="white"/>
<path d="M252.941 139.791C251.852 139.517 250.73 139.398 249.608 139.437C248.429 139.502 247.277 139.817 246.229 140.362C245.182 140.907 244.262 141.668 243.531 142.596C242.801 143.523 242.276 144.596 241.992 145.742C241.708 146.888 241.672 148.082 241.885 149.243C242.156 150.501 242.601 151.716 243.205 152.852C244.089 154.646 245.149 156.436 246.786 157.586C247.772 158.218 248.833 158.723 249.946 159.09L258.564 162.336C259.832 162.814 261.1 163.292 262.381 163.735C268.814 165.958 275.52 167.292 282.314 167.698C284.382 167.891 286.466 167.786 288.504 167.384C288.996 167.32 289.448 167.076 289.771 166.699C289.936 166.413 290.032 166.093 290.054 165.764L290.585 162.051C290.703 161.534 290.688 160.995 290.54 160.486C290.297 159.862 289.688 159.469 289.107 159.136C283.441 155.882 276.825 154.086 272.056 149.62C270.933 148.568 269.993 146.901 268.629 146.187C267.082 145.377 265.261 144.915 263.662 144.168C260.166 142.537 256.729 140.662 252.941 139.791Z" fill="#2F2E41"/>
<path opacity="0.1" d="M261.545 144.796C264.591 145.751 277.453 152.364 279.657 154.673C279.362 154.779 269.336 149.161 269.035 149.071C266.278 148.313 263.577 147.362 260.954 146.223C260.431 145.981 257.56 144.845 257.69 144.186C257.837 143.442 261.004 144.627 261.545 144.796Z" fill="black"/>
<path d="M299.55 169.623C299.723 169.636 299.895 169.585 300.033 169.481C300.094 169.403 300.138 169.314 300.164 169.218C300.19 169.123 300.197 169.023 300.184 168.925L300.17 163.867C298.715 163.174 297.088 162.952 295.491 162.739L288.04 161.743C288.211 161.766 286.875 164.952 287.08 165.377C287.441 166.127 290.201 166.792 290.98 167.146C293.687 168.376 296.501 169.729 299.55 169.623Z" fill="#A0616A"/>
<path d="M276.172 163.85C274.765 164.074 273.195 164.272 272.284 165.367C271.128 166.756 271.62 168.826 272.172 170.547C272.205 170.769 272.283 170.982 272.4 171.173C272.518 171.365 272.672 171.531 272.855 171.661C273.038 171.792 273.245 171.885 273.464 171.934C273.683 171.983 273.91 171.988 274.131 171.948C275.414 172.029 276.779 172.093 277.9 171.464C278.408 171.128 278.897 170.765 279.364 170.375C280.191 169.825 281.1 169.41 282.057 169.144C283.816 168.591 285.626 168.218 287.461 168.031C288.183 167.998 288.899 167.871 289.59 167.655C289.935 167.544 290.249 167.355 290.509 167.103C290.769 166.85 290.968 166.541 291.089 166.2C291.349 165.28 290.814 164.343 290.302 163.537C289.712 162.481 288.945 161.534 288.036 160.736C286.647 159.658 285.961 160.486 284.562 161.176C281.915 162.482 279.087 163.384 276.172 163.85V163.85Z" fill="#A0616A"/>
<path d="M272.494 165.117L263.561 162.477C262.49 162.104 261.37 161.887 260.237 161.833C259.67 161.809 259.104 161.907 258.577 162.12C258.051 162.333 257.576 162.656 257.184 163.067C256.491 163.88 256.293 164.991 256.12 166.045L255.751 168.3C255.505 169.437 255.435 170.604 255.544 171.762C255.604 172.341 255.794 172.899 256.102 173.394C256.409 173.888 256.826 174.306 257.319 174.615C258.555 175.289 260.07 174.96 261.45 174.678C264.236 174.108 267.071 173.804 269.915 173.77C270.984 173.757 272.106 173.771 273.051 173.27C273.599 172.945 274.06 172.491 274.393 171.947C274.726 171.403 274.921 170.786 274.961 170.15C275.137 168.224 274.495 165.708 272.494 165.117Z" fill="#2F2E41"/>
<path d="M303.062 162.816C304.22 162.613 305.242 161.955 306.351 161.567C307.913 161.02 309.606 161.02 311.261 161.026C311.869 160.97 312.48 161.093 313.021 161.378C313.75 161.864 313.936 162.835 314.06 163.702L314.808 168.932C315.008 169.908 315.029 170.912 314.869 171.895C314.65 172.864 313.989 173.798 313.027 174.048C311.859 174.352 310.714 173.606 309.611 173.116C306.855 171.891 303.65 172.204 300.776 171.288C300.501 171.233 300.241 171.12 300.013 170.957C299.785 170.794 299.594 170.585 299.454 170.342C299.355 170.052 299.32 169.744 299.351 169.439C299.4 167.757 299.045 165.462 299.551 163.855C300.007 162.41 301.769 162.816 303.062 162.816Z" fill="#2F2E41"/>
<path d="M321.966 137.686C323.751 137.238 325.601 137.112 327.43 137.313C328.891 137.474 330.396 137.88 331.463 138.891C332.761 140.122 333.178 142.025 333.213 143.814C333.27 147.376 332.088 150.848 329.87 153.636C329.328 154.341 328.684 154.961 327.959 155.475C327.177 155.965 326.343 156.367 325.473 156.674L306.172 164.286C301.094 166.289 295.998 168.298 290.702 169.618C290.557 169.688 290.4 169.728 290.239 169.736C290.079 169.745 289.918 169.721 289.767 169.666C289.616 169.611 289.477 169.527 289.359 169.417C289.241 169.308 289.146 169.176 289.08 169.03C287.389 166.614 285.97 164.019 284.849 161.292C284.796 161.227 284.76 161.15 284.743 161.068C284.725 160.986 284.728 160.901 284.751 160.821C284.773 160.74 284.815 160.666 284.872 160.605C284.93 160.544 285.001 160.497 285.08 160.47L298.732 152.626C299.733 152.104 300.666 151.461 301.51 150.711C302.1 150.139 302.583 149.467 302.937 148.725C303.22 148.134 303.246 146.739 303.608 146.302C303.962 145.875 305.172 145.84 305.731 145.672C306.52 145.431 307.292 145.139 308.043 144.798C311.097 143.432 313.816 141.447 316.744 139.847C318.386 138.909 320.141 138.182 321.966 137.686V137.686Z" fill="#2F2E41"/>
<path opacity="0.1" d="M314.226 143.544C311.881 145.305 308.844 146.925 306.519 148.733C305.726 149.35 292.5 156.785 292.313 157.772C294.482 158.138 308.297 148.473 310.273 147.509C312.25 146.545 314.002 145.185 315.738 143.835C316.181 143.491 318.056 142.457 316.786 142.072C316.07 141.856 314.754 143.191 314.226 143.544Z" fill="black"/>
<path d="M298.087 86.1398H277.499C276.662 86.1398 275.86 86.4721 275.269 87.0635C274.677 87.655 274.345 88.4572 274.345 89.2937V90.4486H274.121V93.0314H274.345V94.8394H274.121V96.3891H274.345V115.447C274.345 116.283 274.677 117.086 275.269 117.677C275.86 118.268 276.662 118.601 277.499 118.601H298.087C298.924 118.601 299.726 118.268 300.317 117.677C300.909 117.086 301.241 116.283 301.241 115.447V89.2936C301.241 88.4572 300.909 87.655 300.317 87.0635C299.726 86.4721 298.924 86.1398 298.087 86.1398V86.1398Z" fill="#D0CDE1"/>
<path d="M301.36 61.779L290.918 56.309L276.497 58.5468L273.514 71.7241L280.941 71.4381L283.015 66.5972V71.3587L286.442 71.2269L288.431 63.5191L289.674 71.7241L301.857 71.4753L301.36 61.779Z" fill="#2F2E41"/>
<path d="M265.89 135.979C266.363 136.782 267.034 137.45 267.839 137.918C268.368 138.16 268.945 138.277 269.525 138.261C270.106 138.246 270.675 138.098 271.19 137.828C272.218 137.277 273.06 136.433 273.608 135.404C274.743 133.4 274.978 131.002 274.837 128.703C274.695 126.405 274.204 124.141 273.987 121.848C273.829 120.182 273.816 118.505 273.803 116.831C273.764 116.479 273.838 116.123 274.014 115.816C274.318 115.514 274.71 115.318 275.134 115.257C277.424 114.576 278.945 112.43 280.035 110.303C280.762 108.884 281.395 107.331 281.255 105.742C281.114 104.153 279.972 102.552 278.385 102.39C277.076 102.256 275.868 103.087 274.924 104.003C272.543 106.329 271.013 109.387 270.579 112.687C270.372 114.303 270.431 115.963 269.992 117.531C269.053 120.881 266.117 122.935 264.654 125.949C263.041 129.27 263.931 133.041 265.89 135.979Z" fill="#A0616A"/>
<path d="M309.099 123.182C308.765 123.959 308.279 124.661 307.67 125.247C307.06 125.833 306.339 126.291 305.549 126.593C304.568 126.987 303.486 127.054 302.463 126.782C301.956 126.642 301.489 126.386 301.097 126.035C300.705 125.685 300.399 125.248 300.203 124.76C300.046 124.268 299.961 123.757 299.948 123.241C299.801 120.982 299.858 118.655 300.678 116.545C300.995 115.731 301.422 114.96 301.671 114.123C301.917 113.157 302.042 112.164 302.045 111.167L302.315 105.004C302.359 104.556 302.329 104.105 302.223 103.667C301.954 102.776 301.121 102.196 300.356 101.664C298.509 100.38 296.684 98.8811 295.789 96.8172C295.482 96.1958 295.372 95.4952 295.474 94.8095C295.726 93.5856 296.961 92.7933 298.182 92.5264C298.98 92.3517 299.806 92.3406 300.609 92.4936C301.413 92.6466 302.177 92.9606 302.855 93.4168C303.534 93.8729 304.113 94.4616 304.558 95.1476C305.003 95.8335 305.304 96.6024 305.444 97.408C305.565 98.1035 305.563 98.814 305.634 99.5164C305.784 101.006 306.257 102.443 306.553 103.911C307.282 107.526 306.904 111.264 307.625 114.879C308.227 117.902 310.5 119.875 309.099 123.182Z" fill="#A0616A"/>
<path d="M288.07 100.005C289.497 100.005 290.653 98.8489 290.653 97.4224C290.653 95.9959 289.497 94.8395 288.07 94.8395C286.644 94.8395 285.487 95.9959 285.487 97.4224C285.487 98.8489 286.644 100.005 288.07 100.005Z" fill="#6C63FF"/>
<path d="M7.61909 190.251C11.827 190.251 15.2382 186.839 15.2382 182.632C15.2382 178.424 11.827 175.012 7.61909 175.012C3.41118 175.012 0 178.424 0 182.632C0 186.839 3.41118 190.251 7.61909 190.251Z" fill="#2F2E41"/>
<path d="M35.2371 205.25L31.3995 201.52L23.6934 203.914L24.4335 212.836L40.2783 212.1L35.4107 205.486L35.2371 205.25Z" fill="#FBBEBE"/>
<path d="M26.8434 205.174C33.6464 205.174 39.1614 199.659 39.1614 192.856C39.1614 186.053 33.6464 180.538 26.8434 180.538C20.0403 180.538 14.5254 186.053 14.5254 192.856C14.5254 199.659 20.0403 205.174 26.8434 205.174Z" fill="#FBBEBE"/>
<path d="M103.315 221.061C103.315 221.061 118.447 247.067 122.049 250.971C123.762 252.892 125.586 254.711 127.513 256.417C127.513 256.417 125.82 262.033 123.124 261.833C121.587 261.74 120.079 261.369 118.675 260.736C118.675 260.736 117.472 257.617 115.372 256.248C113.273 254.88 96.1217 238.007 96.5225 232.614C96.9234 227.22 103.315 221.061 103.315 221.061Z" fill="#2F2E41"/>
<path d="M49.4219 258.172C49.4219 258.172 65.5569 270.696 87.485 258.928L89.3747 257.538C89.3747 257.538 86.1856 264.712 85.8897 266.657C85.5467 268.912 77.2438 282.123 75.8889 282.756C74.534 283.389 74.2354 283.973 74.2354 283.973L79.9853 290.302L82.1112 288.737C82.1112 288.737 90.4007 276.992 92.8253 274.844C95.2498 272.696 106.801 250.539 106.801 250.539C106.801 250.539 111.218 242.191 100.196 241.563C89.1734 240.935 84.1014 243.939 84.1014 243.939L64.5396 247.047L49.4219 258.172Z" fill="#2F2E41"/>
<path d="M127.7 255.187L135.861 260.834C135.861 260.834 146.273 264.096 139.86 266.267C133.446 268.437 116.545 269.223 116.161 266.228C115.778 263.232 116.828 258.518 117.671 258.776C118.514 259.034 124.367 260.553 127.7 255.187Z" fill="#2F2E41"/>
<path d="M82.8332 286.797L84.3437 295.092C84.3437 295.092 88.6388 303.307 83.4818 300.758C78.3247 298.209 67.6998 288.528 69.2688 286.498C70.8377 284.468 74.3006 282.267 74.6522 282.928C75.0039 283.59 77.6067 288.018 82.8332 286.797Z" fill="#2F2E41"/>
<path d="M67.2723 249.77C67.2723 249.77 56.3042 262.576 49.6452 259.465C42.9862 256.354 15.7432 220.325 18.8539 213.666C21.9645 207.007 23.0076 208.424 23.0076 208.424L37.074 209.725L33.0267 203.236C33.0267 203.236 34.9165 201.845 36.7172 203.797C38.5179 205.749 45.7475 210.625 48.266 217.511C50.7846 224.397 58.1788 224.053 58.1788 224.053L67.2723 249.77Z" fill="white"/>
<path d="M111.565 223.365L92.5524 243.547L75.5205 213.476L91.7121 193.913L111.565 223.365Z" fill="#3F3D56"/>
<path d="M110.13 223.146L92.9574 240.881L77.3965 213.552L91.6672 195.585L110.13 223.146Z" fill="white"/>
<path d="M91.6202 242.776L92.5518 243.547L91.9544 244.714L65.3686 252.627L65.1172 251.716L66.3267 250.465L91.6202 242.776Z" fill="#B3B3B3"/>
<path d="M92.7873 243.373L65.2568 251.981L48.4746 220.27L75.5193 213.476L92.7873 243.373Z" fill="#D0CDE1"/>
<path d="M90.7159 239.072L89.5347 239.941L76.4258 217.18L77.7806 216.547L90.7159 239.072Z" fill="#3F3D56"/>
<path d="M88.0061 240.338L76.3601 243.81L63.1396 220.403L74.661 217.75L88.0061 240.338Z" fill="#3F3D56"/>
<path d="M55.1955 222.97L57.6067 222.288C57.6067 222.288 71.0535 220.768 71.2498 224.993C71.4461 229.218 55.8018 227.258 55.8018 227.258L53.7158 224.424L55.1955 222.97Z" fill="#FBBEBE"/>
<path d="M66.9906 241.966L70.3467 240.588C70.3467 240.588 80.4773 236.046 77.5712 233.087C74.6651 230.127 65.7022 235.267 65.7022 235.267L63.9863 236.894L66.9906 241.966Z" fill="#FBBEBE"/>
<path d="M64.0003 235.427C64.0003 235.427 69.4648 240.874 68.2214 242.153C66.9779 243.432 46.5878 260.258 41.5332 254.874C36.4787 249.491 11.8523 222.46 21.4348 220.142C31.0174 217.824 33.5492 223.243 33.5492 223.243L46.1993 244.886L64.0003 235.427Z" fill="white"/>
<path d="M47.6373 218.884L56.6138 221.927L56.4672 228.408L46.9736 227.383L47.6373 218.884Z" fill="white"/>
<path opacity="0.2" d="M55.7281 238.784L46.0567 244.445L35.0068 227.451L45.6731 241.45L55.7281 238.784Z" fill="black"/>
<path d="M21.4377 203.949C29.5365 203.949 36.102 197.384 36.102 189.285C36.102 181.186 29.5365 174.621 21.4377 174.621C13.3389 174.621 6.77344 181.186 6.77344 189.285C6.77344 197.384 13.3389 203.949 21.4377 203.949Z" fill="#2F2E41"/>
<path d="M100.671 224.644L90.4033 209.624L94.7559 204.236L105.425 219.689L100.671 224.644Z" fill="#1A923C"/>
<path d="M100.382 230.683L84.75 207.958L85.521 207.026L101.08 229.805L100.382 230.683Z" fill="#E6E6E6"/>
<path d="M98.3672 232.894L82.7354 210.169L83.5063 209.237L99.0651 232.017L98.3672 232.894Z" fill="#E6E6E6"/>
<path d="M96.6524 234.521L81.0205 211.795L81.7915 210.864L97.3503 233.643L96.6524 234.521Z" fill="#E6E6E6"/>
<path d="M27.9307 179.495H32.467C34.7639 179.495 36.9667 180.407 38.5908 182.031C40.2149 183.655 41.1274 185.858 41.1274 188.155V188.155H27.9307V179.495Z" fill="#2F2E41"/>
<path d="M90.4178 173.983L89.5955 173.922C89.5636 174.35 89.5407 174.78 89.5136 175.209L85.8223 175.085L89.6943 182.341L94.0431 175.361L90.3382 175.237C90.3647 174.819 90.3868 174.4 90.4178 173.983Z" fill="#3F3D56"/>
<path d="M112.069 114.839L112.725 115.339C113.708 114.051 114.736 112.765 115.778 111.517L115.145 110.989C114.095 112.246 113.06 113.541 112.069 114.839Z" fill="#3F3D56"/>
<path d="M118.389 107.278L118.998 107.834C120.092 106.636 121.228 105.446 122.374 104.296L121.79 103.714C120.635 104.871 119.491 106.071 118.389 107.278Z" fill="#3F3D56"/>
<path d="M125.344 100.303L125.902 100.911C127.098 99.8124 128.334 98.727 129.574 97.6851L129.043 97.0536C127.794 98.1032 126.549 99.1968 125.344 100.303Z" fill="#3F3D56"/>
<path d="M106.439 122.93L107.137 123.371C108.003 121.999 108.914 120.627 109.842 119.293L109.165 118.822C108.23 120.166 107.313 121.548 106.439 122.93Z" fill="#3F3D56"/>
<path d="M132.881 93.9699L133.383 94.624C134.672 93.6345 135.998 92.6623 137.324 91.7344L136.851 91.0586C135.515 91.9935 134.179 92.973 132.881 93.9699Z" fill="#3F3D56"/>
<path d="M101.546 131.491L102.279 131.868C103.022 130.423 103.808 128.975 104.615 127.565L103.898 127.156C103.086 128.576 102.294 130.035 101.546 131.491Z" fill="#3F3D56"/>
<path d="M93.5911 154.707L92.7925 154.502C92.3849 156.084 92.0076 157.698 91.6709 159.298L92.478 159.468C92.8122 157.88 93.1868 156.278 93.5911 154.707Z" fill="#3F3D56"/>
<path d="M140.944 88.3261L141.387 89.022C142.754 88.1521 144.16 87.3009 145.565 86.492L145.153 85.7772C143.737 86.5923 142.321 87.4497 140.944 88.3261Z" fill="#3F3D56"/>
<path d="M91.5775 164.274L90.7635 164.14C90.4987 165.75 90.2662 167.391 90.0723 169.017L90.8914 169.114C91.0837 167.501 91.3147 165.872 91.5775 164.274Z" fill="#3F3D56"/>
<path d="M97.4287 140.457L98.1927 140.768C98.8042 139.262 99.4585 137.75 100.137 136.272L99.3876 135.928C98.7038 137.417 98.0447 138.941 97.4287 140.457Z" fill="#3F3D56"/>
<path d="M94.126 149.76L94.9149 150.001C95.3905 148.444 95.9075 146.878 96.4513 145.347L95.6741 145.071C95.1262 146.614 94.6052 148.191 94.126 149.76Z" fill="#3F3D56"/>
<path d="M196.737 71.8865C198.354 71.8305 200 71.8081 201.629 71.8234L201.636 70.9987C199.996 70.9833 198.337 71.0057 196.709 71.0621L196.737 71.8865Z" fill="#3F3D56"/>
<path d="M149.47 83.4178L149.849 84.15C151.289 83.4037 152.764 82.6806 154.232 82.0006L153.885 81.2523C152.406 81.9374 150.921 82.6659 149.47 83.4178Z" fill="#3F3D56"/>
<path d="M216.254 72.9149C217.863 73.1426 219.487 73.4092 221.08 73.7075L221.232 72.8968C219.626 72.5963 217.99 72.3275 216.369 72.0981L216.254 72.9149Z" fill="#3F3D56"/>
<path d="M225.868 74.7135C227.448 75.0824 229.042 75.4924 230.605 75.9319L230.828 75.1378C229.253 74.695 227.647 74.2821 226.056 73.9104L225.868 74.7135Z" fill="#3F3D56"/>
<path d="M235.282 77.3602C236.822 77.8683 238.373 78.4184 239.891 78.9955L240.185 78.2247C238.655 77.6431 237.092 77.0888 235.541 76.5769L235.282 77.3602Z" fill="#3F3D56"/>
<path d="M206.519 71.9733C208.143 72.0585 209.784 72.1809 211.397 72.3368L211.477 71.516C209.852 71.3588 208.198 71.2355 206.562 71.1497L206.519 71.9733Z" fill="#3F3D56"/>
<path d="M186.891 71.8337L186.991 72.6524C188.599 72.4547 190.235 72.2898 191.855 72.1625L191.791 71.3401C190.158 71.4684 188.51 71.6345 186.891 71.8337Z" fill="#3F3D56"/>
<path d="M167.648 75.9601L167.892 76.7478C169.442 76.268 171.024 75.8165 172.594 75.4059L172.385 74.6081C170.804 75.0215 169.21 75.4764 167.648 75.9601Z" fill="#3F3D56"/>
<path d="M158.391 79.2856L158.704 80.0488C160.203 79.4334 161.735 78.8444 163.257 78.2977L162.978 77.5216C161.445 78.0722 159.901 78.6658 158.391 79.2856Z" fill="#3F3D56"/>
<path d="M177.179 73.4685L177.351 74.2752C178.936 73.9355 180.552 73.6264 182.154 73.3567L182.017 72.5432C180.403 72.8151 178.775 73.1264 177.179 73.4685Z" fill="#3F3D56"/>
<path d="M252.197 84.0952L247.588 77.2837L245.967 80.6197C245.575 80.4445 245.184 80.2655 244.793 80.0959L244.465 80.853C244.847 81.0186 245.226 81.1922 245.606 81.3619L243.993 84.6822L252.197 84.0952Z" fill="#3F3D56"/>
</svg>
