<svg width="446" height="192" viewBox="0 0 446 192" fill="none" xmlns="http://www.w3.org/2000/svg">
<path d="M97.8938 106.575C97.8979 105.989 97.781 105.408 97.5505 104.869C97.32 104.33 96.9809 103.844 96.5542 103.442C96.1275 103.04 95.6225 102.73 95.0707 102.531C94.5189 102.333 93.9321 102.251 93.347 102.289C92.762 102.328 92.1911 102.487 91.6702 102.756C91.1492 103.025 90.6894 103.399 90.3193 103.854C89.9493 104.308 89.6769 104.835 89.5194 105.399C89.3618 105.964 89.3224 106.555 89.4035 107.136L77.1479 123.185C76.6249 124.231 76.4222 125.408 76.565 126.569C76.7079 127.73 77.19 128.822 77.951 129.71L78.9124 130.832L83.3235 129.949L88.3229 125.538L87.7347 120.539L93.9104 110.834L93.9024 110.827C94.9834 110.758 95.9977 110.28 96.7391 109.491C97.4804 108.701 97.8933 107.659 97.8938 106.575V106.575Z" fill="#FFB9B9"/>
<path d="M13.1422 185.038L11.1416 177.608L38.8478 166.357L41.8004 177.323L13.1422 185.038Z" fill="#FFB8B8"/>
<path d="M6.45019 188.872L0 164.915L0.303014 164.834C2.77605 164.168 5.41227 164.512 7.63181 165.79C9.85135 167.067 11.4724 169.174 12.1385 171.647L12.1387 171.648L16.0782 186.28L6.45019 188.872Z" fill="#2F2E41"/>
<path d="M51.3066 183.851L45.084 179.326L59.578 153.17L68.7624 159.849L51.3066 183.851Z" fill="#FFB8B8"/>
<path d="M48.5067 191.038L28.4414 176.445L28.626 176.192C30.1323 174.12 32.3997 172.732 34.9295 172.333C37.4592 171.933 40.044 172.555 42.1155 174.061L42.116 174.061L54.3711 182.974L48.5067 191.038Z" fill="#2F2E41"/>
<path d="M104.203 147.3L88.5438 132.088C87.1771 130.76 85.3771 129.971 83.4747 129.864C81.5723 129.758 79.6955 130.342 78.1895 131.509L48.6221 164.357L51.2689 168.474L79.5004 149.359L98.6157 174.355L116.849 165.239L104.203 147.3Z" fill="#2F2E41"/>
<path d="M97.4392 150.535L85.9701 149.653L77.6641 147.639C77.195 146.907 76.5134 146.336 75.7107 146.002C74.908 145.668 74.0225 145.588 73.1727 145.771C72.3228 145.954 71.5493 146.393 70.9555 147.028C70.3618 147.663 69.9763 148.464 69.8505 149.324C69.7248 150.185 69.8648 151.063 70.2519 151.841C70.639 152.62 71.2547 153.261 72.0165 153.68C72.7783 154.099 73.6499 154.275 74.5146 154.185C75.3793 154.095 76.1958 153.743 76.8548 153.176L76.8536 153.182L81.853 155.24L103.321 162.592L105.968 160.534L97.4392 150.535Z" fill="#FFB9B9"/>
<path d="M125.083 182.296L118.614 186.413H110.967L75.3839 173.179L23.3317 182.59L21.8613 171.414L69.5025 150.535L111.262 164.357L125.083 182.296Z" fill="#2F2E41"/>
<path d="M111.261 110.834C117.595 110.834 122.73 105.699 122.73 99.365C122.73 93.0308 117.595 87.8959 111.261 87.8959C104.927 87.8959 99.792 93.0308 99.792 99.365C99.792 105.699 104.927 110.834 111.261 110.834Z" fill="#FFB9B9"/>
<path d="M140.937 145.156C140.937 152.078 139.846 158.957 137.705 165.539L136.847 168.18L132.729 187.001L128.318 188.177L125.083 184.06L118.614 179.355L113.908 171.709L109.873 164.986L108.615 162.886L104.204 140.83L87.441 131.42L81.8535 130.537L83.0298 127.303L88.0292 120.539L93.0285 119.951L94.4989 118.774L95.6753 119.362L102.16 121.86L123.184 112.978L126.26 113.481L136.846 122.303C139.553 129.618 140.938 137.356 140.937 145.156V145.156Z" fill="#CCCCCC"/>
<path opacity="0.1" d="M137.729 142.595L126.554 149.947L109.874 164.986L108.615 162.886L105.086 145.242H105.968L115.085 128.479L137.729 142.595Z" fill="black"/>
<path d="M115.085 126.714L105.968 143.477L100.675 149.359L95.9697 150.535L108.615 164.357L126.554 148.182L137.729 140.83L115.085 126.714Z" fill="#CCCCCC"/>
<path d="M102.341 90.8372L101.098 91.3153C100.91 91.1876 100.748 91.0239 100.623 90.8337C100.497 90.6436 100.41 90.4305 100.367 90.2068C100.324 89.9831 100.326 89.7532 100.372 89.53C100.417 89.3068 100.507 89.0949 100.634 88.9063C100.641 88.8964 100.648 88.8865 100.655 88.8768L98.3584 88.7693C99.8325 86.806 101.707 85.1781 103.857 83.9933C106.007 82.8086 108.385 82.0939 110.832 81.8966C113.279 81.6994 115.74 82.024 118.053 82.8491C120.365 83.6742 122.476 84.9809 124.245 86.6828C124.35 86.3227 125.49 87.0233 125.955 87.7336C126.111 87.1477 127.18 89.9802 127.558 91.9823C127.733 91.3157 128.406 92.3919 127.816 93.4246C128.19 93.37 128.358 94.3255 128.069 94.8579C128.478 94.6659 128.409 95.8066 127.966 96.5689C128.549 96.5171 127.916 108.526 119.167 107.651C118.558 104.852 118.729 105.026 118.012 101.427C117.678 101.073 117.313 100.75 116.948 100.428L114.973 98.6851C112.678 96.6587 110.59 94.1579 107.532 93.4005C105.43 92.8801 104.101 92.7626 105.246 90.3944C104.212 90.8262 103.245 91.4684 102.201 91.8695C102.215 91.5385 102.361 91.1683 102.341 90.8372Z" fill="#2F2E41"/>
<path d="M116.996 102.747C118.133 102.747 119.055 101.825 119.055 100.688C119.055 99.5514 118.133 98.6298 116.996 98.6298C115.859 98.6298 114.938 99.5514 114.938 100.688C114.938 101.825 115.859 102.747 116.996 102.747Z" fill="#FFB9B9"/>
<path d="M20.9973 52.0694L20.3691 61.5024L29.8022 62.1306L30.4304 52.6976L20.9973 52.0694Z" fill="#E6E6E6"/>
<path d="M14.9113 57.0784L26.3656 57.8412L25.6028 69.2955L14.1484 68.5327L14.9113 57.0784ZM25.8344 58.306L15.3761 57.6096L14.6796 68.0678L25.1379 68.7643L25.8344 58.306Z" fill="#CCCCCC"/>
<path d="M74.3054 24.0978L65.0625 26.0839L67.0485 35.3268L76.2915 33.3408L74.3054 24.0978Z" fill="#838383"/>
<path d="M67.8173 19.6208L70.2289 30.8444L59.0054 33.256L56.5938 22.0325L67.8173 19.6208ZM69.6361 30.4613L67.4342 20.2137L57.1866 22.4156L59.3885 32.6632L69.6361 30.4613Z" fill="#363636"/>
<path d="M64.5932 68.4856L57.6934 74.9485L64.1562 81.8483L71.056 75.3855L64.5932 68.4856Z" fill="#E6E6E6"/>
<path d="M71.5523 67.5188L63.1739 75.3666L55.3262 66.9883L63.7045 59.1405L71.5523 67.5188ZM63.197 74.6611L70.8468 67.4958L63.6814 59.846L56.0316 67.0113L63.197 74.6611Z" fill="#CCCCCC"/>
<path d="M421.411 0H141.696C140.685 -1.149e-06 139.684 0.199136 138.75 0.586043C137.816 0.972949 136.967 1.54004 136.252 2.25495C135.537 2.96987 134.97 3.81859 134.583 4.75267C134.196 5.68674 133.997 6.68788 133.997 7.69891V163.551C133.997 164.562 134.196 165.563 134.583 166.497C134.97 167.431 135.537 168.28 136.252 168.995C136.967 169.71 137.816 170.277 138.75 170.664C139.684 171.051 140.685 171.25 141.696 171.25H421.411C423.453 171.25 425.411 170.439 426.855 168.995C428.298 167.551 429.11 165.593 429.11 163.551V7.69891C429.11 5.65703 428.298 3.69879 426.855 2.25496C425.411 0.811135 423.453 1.16026e-06 421.411 0V0Z" fill="#3F3D56"/>
<path d="M418.788 13.6061H144.319V168.435H418.788V13.6061Z" fill="white"/>
<path d="M281.319 9.38353C282.874 9.38353 284.134 8.12319 284.134 6.56848C284.134 5.01376 282.874 3.75342 281.319 3.75342C279.764 3.75342 278.504 5.01376 278.504 6.56848C278.504 8.12319 279.764 9.38353 281.319 9.38353Z" fill="white"/>
<path d="M340.295 168.435H144.319V13.6063L340.295 168.435Z" fill="#F2F2F2"/>
<path d="M187.266 156.849C201.836 156.849 213.648 145.037 213.648 130.466C213.648 115.895 201.836 104.083 187.266 104.083C172.695 104.083 160.883 115.895 160.883 130.466C160.883 145.037 172.695 156.849 187.266 156.849Z" fill="#02D35F"/>
<path d="M193.138 150.295C186.647 150.295 180.302 148.37 174.905 144.764C169.509 141.158 165.302 136.033 162.818 130.036C160.335 124.04 159.685 117.441 160.951 111.075C162.217 104.709 165.343 98.8616 169.932 94.272C174.522 89.6823 180.37 86.5568 186.736 85.2905C193.102 84.0242 199.7 84.6741 205.697 87.158C211.693 89.6419 216.819 93.8482 220.425 99.2451C224.031 104.642 225.956 110.987 225.956 117.478C225.956 121.787 225.107 126.055 223.457 130.036C221.808 134.018 219.391 137.636 216.343 140.683C213.296 143.73 209.678 146.148 205.697 147.797C201.715 149.446 197.448 150.295 193.138 150.295V150.295ZM193.138 85.0889C186.732 85.0889 180.47 86.9884 175.144 90.5473C169.817 94.1063 165.666 99.1647 163.215 105.083C160.763 111.001 160.122 117.513 161.372 123.796C162.621 130.079 165.706 135.85 170.236 140.38C174.765 144.909 180.536 147.994 186.819 149.244C193.102 150.494 199.614 149.852 205.532 147.401C211.451 144.949 216.509 140.798 220.068 135.472C223.627 130.145 225.527 123.883 225.527 117.478C225.527 113.224 224.689 109.013 223.061 105.083C221.433 101.153 219.048 97.5829 216.04 94.5753C213.033 91.5678 209.462 89.182 205.532 87.5543C201.603 85.9267 197.391 85.0889 193.138 85.0889L193.138 85.0889Z" fill="#3F3D56"/>
<path d="M355.249 94.0441H329.61V99.4013H355.249V94.0441Z" fill="#3F3D56"/>
<path d="M379.506 65.0206H305.354V67.3166H379.506V65.0206Z" fill="#3F3D56"/>
<path d="M379.506 74.0411H305.354V76.3371H379.506V74.0411Z" fill="#3F3D56"/>
<path d="M379.506 83.0616H305.354V85.3576H379.506V83.0616Z" fill="#3F3D56"/>
<path d="M399.369 22.8719H388.654V33.5865H399.369V22.8719Z" fill="#02D35F"/>
<path d="M404.344 38.5611H391.333V25.5505H404.344V38.5611ZM391.899 37.9954H403.778V26.1162H391.899L391.899 37.9954Z" fill="#CCCCCC"/>
<path d="M436.816 165.619H410.03V163.69C410.03 163.639 410.02 163.59 410 163.543C409.981 163.497 409.953 163.455 409.918 163.419C409.882 163.383 409.84 163.355 409.793 163.336C409.747 163.317 409.697 163.307 409.647 163.307H400.463C400.413 163.307 400.363 163.317 400.317 163.336C400.27 163.355 400.228 163.383 400.192 163.419C400.157 163.454 400.129 163.497 400.109 163.543C400.09 163.59 400.08 163.639 400.08 163.69V165.619H394.34V163.69C394.34 163.639 394.331 163.59 394.311 163.543C394.292 163.497 394.264 163.454 394.228 163.419C394.193 163.383 394.151 163.355 394.104 163.336C394.058 163.317 394.008 163.307 393.958 163.307H384.774C384.724 163.307 384.674 163.317 384.627 163.336C384.581 163.355 384.539 163.383 384.503 163.419C384.468 163.455 384.44 163.497 384.42 163.543C384.401 163.59 384.391 163.639 384.391 163.69V163.69V165.619H378.651V163.69C378.651 163.639 378.641 163.59 378.622 163.543C378.603 163.497 378.575 163.455 378.539 163.419C378.504 163.383 378.462 163.355 378.415 163.336C378.369 163.317 378.319 163.307 378.269 163.307H369.085C369.034 163.307 368.985 163.317 368.938 163.336C368.892 163.355 368.85 163.383 368.814 163.419C368.779 163.454 368.75 163.497 368.731 163.543C368.712 163.59 368.702 163.639 368.702 163.69V163.69V165.619H362.962V163.69C362.962 163.639 362.952 163.59 362.933 163.543C362.914 163.497 362.886 163.454 362.85 163.419C362.815 163.383 362.772 163.355 362.726 163.336C362.68 163.317 362.63 163.307 362.58 163.307H353.396C353.345 163.307 353.296 163.317 353.249 163.336C353.203 163.355 353.161 163.383 353.125 163.419C353.089 163.454 353.061 163.497 353.042 163.543C353.023 163.59 353.013 163.639 353.013 163.69V165.619H347.273V163.69C347.273 163.639 347.263 163.59 347.244 163.543C347.225 163.497 347.196 163.454 347.161 163.419C347.125 163.383 347.083 163.355 347.037 163.336C346.99 163.317 346.941 163.307 346.89 163.307H337.706C337.656 163.307 337.606 163.317 337.56 163.336C337.514 163.355 337.471 163.383 337.436 163.419C337.4 163.455 337.372 163.497 337.353 163.543C337.334 163.59 337.324 163.639 337.324 163.69V163.69V165.619H331.584V163.69C331.584 163.639 331.574 163.59 331.555 163.543C331.535 163.497 331.507 163.455 331.472 163.419C331.436 163.383 331.394 163.355 331.348 163.336C331.301 163.317 331.251 163.307 331.201 163.307H322.017C321.967 163.307 321.917 163.317 321.871 163.336C321.824 163.355 321.782 163.383 321.747 163.419C321.711 163.454 321.683 163.497 321.664 163.543C321.645 163.59 321.635 163.639 321.635 163.69V163.69V165.619H315.895V163.69C315.895 163.639 315.885 163.59 315.866 163.543C315.846 163.497 315.818 163.454 315.783 163.419C315.747 163.383 315.705 163.355 315.658 163.336C315.612 163.317 315.562 163.307 315.512 163.307H243.572C243.521 163.307 243.472 163.317 243.425 163.336C243.379 163.355 243.336 163.383 243.301 163.419C243.265 163.455 243.237 163.497 243.218 163.543C243.199 163.59 243.189 163.639 243.189 163.69V163.69V165.619H237.449V163.69C237.449 163.639 237.439 163.59 237.42 163.543C237.401 163.497 237.372 163.455 237.337 163.419C237.301 163.383 237.259 163.355 237.213 163.336C237.166 163.317 237.117 163.307 237.066 163.307H227.882C227.832 163.307 227.782 163.317 227.736 163.336C227.69 163.355 227.647 163.383 227.612 163.419C227.576 163.454 227.548 163.497 227.529 163.543C227.51 163.59 227.5 163.639 227.5 163.69V163.69V165.619H221.76V163.69C221.76 163.639 221.75 163.59 221.731 163.543C221.711 163.497 221.683 163.455 221.648 163.419C221.612 163.383 221.57 163.355 221.524 163.336C221.477 163.317 221.427 163.307 221.377 163.307H212.193C212.143 163.307 212.093 163.317 212.047 163.336C212 163.355 211.958 163.383 211.923 163.419C211.887 163.455 211.859 163.497 211.84 163.543C211.82 163.59 211.811 163.639 211.811 163.69V163.69V165.619H206.071V163.69C206.071 163.639 206.061 163.59 206.041 163.543C206.022 163.497 205.994 163.455 205.959 163.419C205.923 163.383 205.881 163.355 205.834 163.336C205.788 163.317 205.738 163.307 205.688 163.307H196.504C196.454 163.307 196.404 163.317 196.358 163.336C196.311 163.355 196.269 163.383 196.233 163.419C196.198 163.454 196.17 163.497 196.151 163.543C196.131 163.59 196.121 163.639 196.121 163.69V163.69V165.619H190.381V163.69C190.381 163.639 190.372 163.59 190.352 163.543C190.333 163.497 190.305 163.455 190.269 163.419C190.234 163.383 190.192 163.355 190.145 163.336C190.099 163.317 190.049 163.307 189.999 163.307H180.815C180.765 163.307 180.715 163.317 180.668 163.336C180.622 163.355 180.58 163.383 180.544 163.419C180.509 163.454 180.481 163.497 180.461 163.543C180.442 163.59 180.432 163.639 180.432 163.69V163.69V165.619H174.692V163.69C174.692 163.639 174.682 163.59 174.663 163.543C174.644 163.497 174.616 163.454 174.58 163.419C174.545 163.383 174.503 163.355 174.456 163.336C174.41 163.317 174.36 163.307 174.31 163.307H165.126C165.024 163.307 164.927 163.347 164.855 163.419C164.783 163.491 164.743 163.588 164.743 163.69V165.619H159.003V163.69C159.003 163.639 158.993 163.59 158.974 163.543C158.955 163.497 158.927 163.455 158.891 163.419C158.856 163.383 158.813 163.355 158.767 163.336C158.721 163.317 158.671 163.307 158.621 163.307H149.437C149.335 163.307 149.238 163.347 149.166 163.419C149.094 163.491 149.054 163.588 149.054 163.69V165.619H131.451C129.016 165.62 126.68 166.587 124.957 168.309C123.235 170.032 122.268 172.368 122.268 174.803V178.956C122.268 181.392 123.235 183.728 124.957 185.45C126.68 187.172 129.016 188.14 131.451 188.14H436.816C439.252 188.14 441.588 187.172 443.31 185.45C445.032 183.728 446 181.392 446 178.956V174.803C446 173.597 445.762 172.403 445.301 171.289C444.839 170.175 444.163 169.162 443.31 168.309C442.457 167.457 441.445 166.78 440.33 166.319C439.216 165.857 438.022 165.619 436.816 165.619V165.619Z" fill="#3F3D56"/>
</svg>
